<?xml version="1.0" encoding="UTF-8" standalone="no"?><!-- Generator: Gravit.io --><svg xmlns="http://www.w3.org/2000/svg" xmlns:xlink="http://www.w3.org/1999/xlink" style="isolation:isolate" viewBox="136.32 331.443 32.579 31.775" width="32.579pt" height="31.775pt"><defs><clipPath id="_clipPath_9SJKJiXG5qj2Cs5Do9T2HZr86E4xSftn"><rect x="136.32" y="331.443" width="32.579" height="31.775"/></clipPath></defs><g clip-path="url(#_clipPath_9SJKJiXG5qj2Cs5Do9T2HZr86E4xSftn)"><path d=" M 152.608 331.443 C 143.614 331.443 136.32 338.736 136.32 347.733 C 136.32 354.93 140.987 361.035 147.46 363.189 C 148.275 363.339 148.572 362.836 148.572 362.404 C 148.572 362.017 148.558 360.993 148.55 359.634 C 144.019 360.618 143.063 357.45 143.063 357.45 C 142.322 355.568 141.254 355.067 141.254 355.067 C 139.775 354.057 141.366 354.077 141.366 354.077 C 143.001 354.192 143.861 355.756 143.861 355.756 C 145.314 358.245 147.674 357.526 148.602 357.109 C 148.75 356.057 149.171 355.339 149.636 354.932 C 146.019 354.521 142.216 353.123 142.216 346.881 C 142.216 345.103 142.851 343.648 143.893 342.51 C 143.725 342.098 143.166 340.441 144.053 338.199 C 144.053 338.199 145.42 337.761 148.532 339.869 C 149.831 339.507 151.225 339.327 152.61 339.32 C 153.994 339.327 155.387 339.507 156.688 339.869 C 159.798 337.761 161.163 338.199 161.163 338.199 C 162.052 340.441 161.493 342.098 161.326 342.51 C 162.37 343.648 163 345.103 163 346.881 C 163 353.139 159.191 354.516 155.563 354.919 C 156.147 355.422 156.668 356.416 156.668 357.935 C 156.668 360.113 156.648 361.87 156.648 362.404 C 156.648 362.84 156.942 363.347 157.768 363.188 C 164.236 361.029 168.899 354.928 168.899 347.733 C 168.899 338.736 161.605 331.443 152.608 331.443 Z " fill-rule="evenodd" fill="rgb(254,254,254)"/></g></svg>