<?xml version="1.0" encoding="UTF-8" standalone="no"?><!-- Generator: Gravit.io --><svg xmlns="http://www.w3.org/2000/svg" xmlns:xlink="http://www.w3.org/1999/xlink" style="isolation:isolate" viewBox="774 335.25 446.848 383.265" width="446.848pt" height="383.265pt"><defs><clipPath id="_clipPath_8SPCTJFt1tDQn86cbk6pMMFdqm7hzzNC"><rect x="774" y="335.25" width="446.848" height="383.265"/></clipPath></defs><g clip-path="url(#_clipPath_8SPCTJFt1tDQn86cbk6pMMFdqm7hzzNC)"><path d=" M 805.201 490.21 C 826.756 401.332 906.909 335.25 1002.375 335.25 C 1079.171 335.25 1135.333 380 1166 441 C 1129.333 383.333 1029.005 367.186 960 394.5 C 912.746 413.205 882.21 445.235 868.392 490.592 Q 868.195 491.239 867.594 493.295 L 867.997 493.315 L 903 494.667 L 833.25 587.625 L 774 488.667 L 805.201 490.21 Z " fill="rgb(255,144,35)"/><path d=" M 1189.608 553.453 C 1172.601 643.312 1095.912 713.385 1000.57 718.24 C 923.873 722.145 869.333 684.333 832 620 C 878.274 678.906 972.351 687.7 1039.877 656.911 C 1086.119 635.828 1114.987 602.286 1126.48 556.285 Q 1126.644 555.629 1127.139 553.545 L 1126.736 553.546 L 1094 553.586 L 1156.642 457.59 L 1220.848 553.408 L 1189.608 553.453 Z " fill="rgb(255,144,35)"/></g></svg>